<region> lovel=1 hivel=12 amp_velcurve_12=1 sample=../samples/cymbals/cy19china/hnd/ord/cy19china_hnd_ord_001.wav
<region> lovel=13 hivel=24 amp_velcurve_24=1 sample=../samples/cymbals/cy19china/hnd/ord/cy19china_hnd_ord_002.wav
<region> lovel=25 hivel=36 amp_velcurve_36=1 sample=../samples/cymbals/cy19china/hnd/ord/cy19china_hnd_ord_003.wav
<region> lovel=37 hivel=49 amp_velcurve_49=1 sample=../samples/cymbals/cy19china/hnd/ord/cy19china_hnd_ord_004.wav
<region> lovel=50 hivel=62 amp_velcurve_62=1 sample=../samples/cymbals/cy19china/hnd/ord/cy19china_hnd_ord_005.wav
<region> lovel=63 hivel=75 amp_velcurve_75=1 sample=../samples/cymbals/cy19china/hnd/ord/cy19china_hnd_ord_006.wav
<region> lovel=76 hivel=88 amp_velcurve_88=1 sample=../samples/cymbals/cy19china/hnd/ord/cy19china_hnd_ord_007.wav
<region> lovel=89 hivel=101 amp_velcurve_101=1 sample=../samples/cymbals/cy19china/hnd/ord/cy19china_hnd_ord_008.wav
<region> lovel=102 hivel=114 amp_velcurve_114=1 sample=../samples/cymbals/cy19china/hnd/ord/cy19china_hnd_ord_009.wav
<region> lovel=115 hivel=127 amp_velcurve_127=1 sample=../samples/cymbals/cy19china/hnd/ord/cy19china_hnd_ord_010.wav
